<svg width="64" height="64" viewBox="0 0 64 64" xmlns="http://www.w3.org/2000/svg">
  <circle cx="32" cy="32" r="30" fill="#3C8DBC" stroke="#1D5A85" stroke-width="4"></circle>
  
  <!-- Datenbank -->
  <ellipse cx="32" cy="20" rx="14" ry="6" fill="#ffffff" stroke="#1D5A85" stroke-width="2"></ellipse>
  <path d="M18 20 v12 c0 3 6 6 14 6s14-3 14-6V20" fill="#ffffff" stroke="#1D5A85" stroke-width="2"></path>
  <path d="M18 32 v12 c0 3 6 6 14 6s14-3 14-6V32" fill="#ffffff" stroke="#1D5A85" stroke-width="2"></path>
  
  <!-- Zahnrad -->
  <g transform="translate(44 44) scale(0.5)">
    <circle cx="0" cy="0" r="10" fill="#3C8DBC" stroke="#ffffff" stroke-width="2"></circle>
    <path d="M0,-16 L0,-22 M0,16 L0,22 M-16,0 L-22,0 M16,0 L22,0 
             M-11,-11 L-15,-15 M11,-11 L15,-15 M-11,11 L-15,15 M11,11 L15,15" stroke="#ffffff" stroke-width="2"></path>
  </g>
</svg>
